<svg width="143" height="120" viewBox="0 0 143 120" fill="none" xmlns="http://www.w3.org/2000/svg">
<path d="M87.4101 91.7525L76.4073 83.927C80.1182 80.292 83.4933 75.116 86.721 69.2638L97.7238 77.0893C93.3273 82.1103 89.6029 87.0378 87.4101 91.7525Z" fill="white"/>
<path d="M87.4131 83.4209C89.2066 83.4209 90.6605 81.9589 90.6605 80.1554C90.6605 78.3519 89.2066 76.8899 87.4131 76.8899C85.6197 76.8899 84.1657 78.3519 84.1657 80.1554C84.1657 81.9589 85.6197 83.4209 87.4131 83.4209Z" fill="#FDD010"/>
<path d="M34.3339 56.043H33.1261C33.0837 56.043 33.0429 56.0599 33.0129 56.0901C32.9829 56.1203 32.966 56.1613 32.966 56.204V56.7371C32.966 56.7582 32.9701 56.7792 32.9782 56.7987C32.9862 56.8182 32.998 56.836 33.0129 56.8509C33.0278 56.8659 33.0454 56.8777 33.0649 56.8858C33.0843 56.8939 33.1051 56.8981 33.1261 56.8981H33.3263V57.6968H34.1338V56.8981H34.3339C34.3764 56.8981 34.4171 56.8811 34.4471 56.8509C34.4772 56.8207 34.494 56.7798 34.494 56.7371V56.204C34.494 56.1613 34.4772 56.1203 34.4471 56.0901C34.4171 56.0599 34.3764 56.043 34.3339 56.043Z" fill="#E6E6E6"/>
<path d="M35.5436 60.9217C34.8039 59.8333 34.4258 58.5374 34.4634 57.2197C34.464 57.1893 34.4542 57.1596 34.4356 57.1357C34.417 57.1117 34.3906 57.095 34.3611 57.0883V56.858H33.0856V57.0851H33.068C33.0508 57.0851 33.0338 57.0886 33.0179 57.0952C33.0021 57.1018 32.9876 57.1115 32.9755 57.1238C32.9634 57.136 32.9537 57.1505 32.9472 57.1665C32.9406 57.1825 32.9373 57.1996 32.9373 57.2169C32.9373 57.2201 32.9374 57.2233 32.9376 57.2265C33.0554 58.5711 32.6946 59.914 31.9196 61.0161C31.8748 61.0804 31.8519 61.1575 31.8544 61.2359L31.9938 65.5744C31.9972 65.6711 32.0376 65.7629 32.1066 65.8304C32.1756 65.898 32.2678 65.9361 32.3641 65.9369H35.2493C35.3467 65.9361 35.4399 65.8971 35.5091 65.8282C35.5783 65.7592 35.618 65.6659 35.6198 65.568L35.6735 61.3557C35.6751 61.2011 35.6298 61.0497 35.5436 60.9217Z" fill="white"/>
<path opacity="0.2" d="M34.0821 56.2166C34.0821 56.3088 34.0457 56.3971 33.9809 56.4623C33.9161 56.5274 33.8283 56.564 33.7366 56.564C33.645 56.564 33.5572 56.5274 33.4924 56.4623C33.4276 56.3971 33.3912 56.3088 33.3912 56.2166" fill="black"/>
<path d="M34.9816 61.7576H32.5461V63.3903H34.9816V61.7576Z" fill="#FDD010"/>
<path d="M72.5542 72.9914H70.2934C70.2139 72.9914 70.1376 73.0232 70.0814 73.0797C70.0252 73.1362 69.9936 73.2129 69.9936 73.2928V74.2907C69.9936 74.3706 70.0252 74.4473 70.0814 74.5038C70.1376 74.5604 70.2139 74.5921 70.2934 74.5921H70.668V76.0873H72.1795V74.5921H72.5542C72.6337 74.5921 72.7099 74.5604 72.7661 74.5038C72.8223 74.4473 72.8539 74.3706 72.8539 74.2907V73.2928C72.8539 73.2129 72.8223 73.1362 72.7661 73.0797C72.7099 73.0232 72.6337 72.9914 72.5542 72.9914Z" fill="#E6E6E6"/>
<path d="M74.8186 82.1239C73.434 80.0866 72.7262 77.6609 72.7965 75.1943C72.7978 75.1373 72.7794 75.0817 72.7445 75.0369C72.7097 74.9921 72.6604 74.9607 72.6052 74.9483V74.5171H70.2175V74.9423H70.1846C70.1524 74.9423 70.1205 74.9487 70.0908 74.9611C70.0611 74.9736 70.0341 74.9918 70.0114 75.0147C69.9887 75.0376 69.9707 75.0648 69.9584 75.0947C69.9461 75.1246 69.9398 75.1566 69.9399 75.189C69.9399 75.1949 69.9401 75.2009 69.9406 75.2069C70.1287 77.8437 69.4935 80.2083 68.0349 82.3008C67.951 82.421 67.9081 82.5654 67.9128 82.7122L68.1738 90.8334C68.1801 91.0145 68.2557 91.1862 68.3849 91.3127C68.514 91.4391 68.6867 91.5105 68.867 91.5119H74.2677C74.45 91.5104 74.6245 91.4374 74.754 91.3084C74.8836 91.1795 74.958 91.0047 74.9613 90.8214L75.0619 82.9364C75.0648 82.647 74.98 82.3636 74.8186 82.1239Z" fill="white"/>
<path opacity="0.2" d="M72.0829 73.3166C72.0829 73.489 72.0147 73.6544 71.8935 73.7764C71.7722 73.8983 71.6077 73.9669 71.4362 73.9669C71.2647 73.9669 71.1002 73.8983 70.9789 73.7764C70.8577 73.6544 70.7895 73.489 70.7895 73.3166" fill="black"/>
<path d="M73.9637 84.8215H69.2628C69.1932 84.8215 69.1245 84.8367 69.0612 84.8659C68.998 84.8951 68.9418 84.9377 68.8965 84.9908C68.8512 85.0439 68.8178 85.1063 68.7987 85.1736C68.7796 85.2408 68.7752 85.3115 68.7858 85.3806L69.4962 90.0238H73.5752L74.4381 85.3963C74.4511 85.3262 74.4487 85.2541 74.4309 85.1851C74.4131 85.116 74.3804 85.0518 74.3351 84.9969C74.2898 84.942 74.233 84.8979 74.1689 84.8676C74.1047 84.8372 74.0346 84.8215 73.9637 84.8215Z" fill="#FDD010"/>
<path d="M66.1037 91.7397H52.6269C53.5691 86.6172 53.3524 80.4316 52.6269 73.7795H66.1037C65.3975 80.4317 65.1865 86.6172 66.1037 91.7397Z" fill="white"/>
<path d="M59.4465 85.5352C61.24 85.5352 62.6939 84.0732 62.6939 82.2698C62.6939 80.4663 61.24 79.0043 59.4465 79.0043C57.653 79.0043 56.1991 80.4663 56.1991 82.2698C56.1991 84.0732 57.653 85.5352 59.4465 85.5352Z" fill="#FDD010"/>
<path d="M10.9805 35.2165L14.0059 34.9399L15.9313 30.2383L12.4933 28.3022L10.9805 35.2165Z" fill="#FFB8B8"/>
<path d="M38.7459 48.1238C38.8465 47.8715 38.8861 47.5988 38.8613 47.3281C38.8365 47.0575 38.7481 46.7966 38.6034 46.567C38.4587 46.3374 38.2618 46.1457 38.0289 46.0077C37.7961 45.8697 37.5339 45.7892 37.2641 45.7731L32.5667 45.4914L31.8751 47.8041L36.7108 49.1396C37.1149 49.2512 37.5457 49.2093 37.921 49.0219C38.2964 48.8346 38.59 48.5149 38.7459 48.1238Z" fill="#FFB8B8"/>
<path d="M33.702 49.1784L33.6504 44.8387L23.2164 43.1645L15.1782 33.8943C14.76 33.412 14.1821 33.0984 13.5516 33.0117C12.9211 32.925 12.2807 33.071 11.7491 33.4228C11.4272 33.6357 11.1557 33.9171 10.9539 34.2472C10.7521 34.5772 10.6248 34.9478 10.5811 35.3328C10.5374 35.7177 10.5783 36.1076 10.7009 36.4749C10.8235 36.8422 11.0248 37.178 11.2907 37.4584L17.9221 45.6648L33.702 49.1784Z" fill="#575A89"/>
<path d="M8.6427 97.9979H11.3931L18.2151 66.9823L25.2825 76.5637L29.4081 97.3064H32.021L31.4709 75.0426L22.2571 51.2575H13.1808C10.7005 55.7713 8.75482 60.4243 10.9805 65.2243L8.6427 97.9979Z" fill="#2F2E41"/>
<path d="M27.7221 99.8817C27.6917 99.9796 27.6824 100.083 27.6947 100.185C27.7071 100.286 27.7409 100.384 27.7938 100.472C27.8468 100.56 27.9177 100.635 28.0018 100.693C28.086 100.751 28.1814 100.79 28.2818 100.808L35.012 102.009C35.278 102.058 35.5525 102.007 35.7839 101.866C36.0153 101.726 36.1876 101.505 36.2682 101.246C36.3467 100.998 36.3357 100.73 36.2373 100.489C36.1388 100.248 35.9592 100.05 35.73 99.9297C34.2502 99.1656 32.9766 98.0522 32.0184 96.6848C31.2787 97.3775 30.4519 97.3123 29.574 96.8019L28.6428 96.9189L27.7221 99.8817Z" fill="#2F2E41"/>
<path d="M7.36922 99.8817C7.33881 99.9796 7.32948 100.083 7.34185 100.185C7.35422 100.286 7.38801 100.384 7.44096 100.472C7.49391 100.56 7.56482 100.635 7.64896 100.693C7.7331 100.751 7.82853 100.79 7.92892 100.808L14.6591 102.009C14.9251 102.058 15.1996 102.007 15.431 101.866C15.6624 101.726 15.8347 101.505 15.9153 101.246C15.9938 100.998 15.9828 100.73 15.8844 100.489C15.786 100.248 15.6064 100.05 15.3771 99.9297C13.8973 99.1656 12.6237 98.0522 11.6655 96.6848C10.9258 97.3775 10.0991 97.3123 9.22115 96.8019L8.28997 96.9189L7.36922 99.8817Z" fill="#2F2E41"/>
<path d="M16 31.9668C18.1266 31.9668 19.8505 30.2333 19.8505 28.0948C19.8505 25.9564 18.1266 24.2228 16 24.2228C13.8734 24.2228 12.1494 25.9564 12.1494 28.0948C12.1494 30.2333 13.8734 31.9668 16 31.9668Z" fill="#FFB8B8"/>
<path d="M12.562 52.2947L22.6009 52.0181L19.6527 42.6876C21.4849 39.7341 19.6409 36.7835 17.0314 33.8336L14.9686 32.4508L11.6681 32.1742C10.2391 33.7118 9.45726 35.7457 9.48622 37.85C9.55157 42.356 10.345 47.2613 12.562 52.2947Z" fill="#575A89"/>
<path d="M35.6268 58.5752C35.818 58.383 35.9611 58.1479 36.0442 57.8893C36.1273 57.6306 36.148 57.3558 36.1048 57.0875C36.0616 56.8192 35.9555 56.5651 35.7955 56.3461C35.6354 56.127 35.4259 55.9494 35.1841 55.8278L30.9757 53.7106L29.435 55.5633L33.3584 58.704C33.6863 58.9664 34.0987 59.0983 34.5171 59.0746C34.9354 59.0508 35.3305 58.873 35.6268 58.5752Z" fill="#FFB8B8"/>
<path d="M30.577 57.5495L32.2272 53.5393L23.2895 47.8726L19.526 36.1701C19.3302 35.5612 18.9216 35.0443 18.3758 34.7152C17.8301 34.3861 17.1842 34.267 16.5578 34.3801C16.1786 34.4485 15.8189 34.5999 15.5043 34.8235C15.1896 35.0471 14.9276 35.3374 14.7368 35.6741C14.546 36.0107 14.4311 36.3853 14.4001 36.7715C14.3691 37.1577 14.4229 37.546 14.5576 37.909L17.4439 48.077L30.577 57.5495Z" fill="#575A89"/>
<path d="M9.6741 26.5737C9.6741 28.0803 10.6471 30.4135 11.8744 31.4137C12.7002 32.0866 13.7915 32.0583 14.2122 31.1371C14.6439 30.1921 16.1317 27.9709 18.7504 26.5737C22.2412 24.7111 17.5124 21.5244 14.2122 22.0103C11.7323 22.3754 9.6741 24.0534 9.6741 26.5737Z" fill="#2F2E41"/>
<path d="M12.0119 24.4994C13.5309 24.4994 14.7623 23.2611 14.7623 21.7337C14.7623 20.2062 13.5309 18.968 12.0119 18.968C10.4929 18.968 9.26154 20.2062 9.26154 21.7337C9.26154 23.2611 10.4929 24.4994 12.0119 24.4994Z" fill="#2F2E41"/>
<path d="M15.1749 20.7657C15.1746 20.0684 14.9123 19.3971 14.4405 18.8861C13.9687 18.3751 13.3222 18.0624 12.6308 18.0105C12.6991 18.0054 12.7674 18 12.837 18C13.5665 18 14.2661 18.2914 14.7819 18.8101C15.2977 19.3287 15.5874 20.0322 15.5874 20.7657C15.5874 21.4992 15.2977 22.2027 14.7819 22.7213C14.2661 23.24 13.5665 23.5314 12.837 23.5314C12.7674 23.5314 12.6991 23.526 12.6308 23.5209C13.3222 23.469 13.9687 23.1563 14.4405 22.6453C14.9123 22.1343 15.1746 21.463 15.1749 20.7657Z" fill="#2F2E41"/>
<path d="M16.0688 29.4776C16.4105 29.4776 16.6876 29.1062 16.6876 28.6479C16.6876 28.1897 16.4105 27.8182 16.0688 27.8182C15.727 27.8182 15.4499 28.1897 15.4499 28.6479C15.4499 29.1062 15.727 29.4776 16.0688 29.4776Z" fill="#FFB8B8"/>
<path d="M93.9959 92.9259H51.1809L42.1145 49.8273H34.3768V47.8935H43.6733L52.7398 90.9919H93.9959V92.9259Z" fill="#3F3D56"/>
<path d="M57.4552 100.8C59.7313 100.8 61.5763 98.9442 61.5763 96.6555C61.5763 94.3668 59.7313 92.5114 57.4552 92.5114C55.1792 92.5114 53.3341 94.3668 53.3341 96.6555C53.3341 98.9442 55.1792 100.8 57.4552 100.8Z" fill="#3F3D56"/>
<path d="M88.2264 100.8C90.5024 100.8 92.3475 98.9442 92.3475 96.6555C92.3475 94.3668 90.5024 92.5114 88.2264 92.5114C85.9503 92.5114 84.1052 94.3668 84.1052 96.6555C84.1052 98.9442 85.9503 100.8 88.2264 100.8Z" fill="#3F3D56"/>
<path d="M93.2153 92.0151H51.5587L44.2088 55.4909H100.113C100.398 55.4909 100.68 55.5531 100.939 55.6731C101.198 55.7931 101.428 55.9682 101.614 56.1862C101.799 56.4042 101.935 56.66 102.013 56.936C102.091 57.212 102.108 57.5016 102.064 57.785L95.1661 90.3375C95.0949 90.8059 94.8588 91.2329 94.5007 91.5409C94.1426 91.8488 93.6864 92.0171 93.2153 92.0151ZM52.0111 91.4626H93.2153C93.5553 91.464 93.8845 91.3425 94.143 91.1203C94.4014 90.898 94.5718 90.5898 94.623 90.2517L101.521 57.6992C101.553 57.4947 101.54 57.2856 101.484 57.0864C101.428 56.8872 101.33 56.7025 101.196 56.5452C101.062 56.3878 100.896 56.2615 100.709 56.1749C100.522 56.0883 100.319 56.0434 100.113 56.0434H44.8758L52.0111 91.4626Z" fill="#3F3D56"/>
<path d="M59.6569 91.8982L54.8435 55.8122L55.3856 55.7221L60.199 91.8082L59.6569 91.8982Z" fill="#3F3D56"/>
<path d="M86.4209 91.6212L85.8784 91.5328L90.5512 55.723L91.0937 55.8114L86.4209 91.6212Z" fill="#3F3D56"/>
<path d="M73.6693 55.7672H73.1198V91.8532H73.6693V55.7672Z" fill="#3F3D56"/>
<path d="M47.0157 65.4367L47.0143 65.9892L100.204 66.1187L100.205 65.5662L47.0157 65.4367Z" fill="#3F3D56"/>
<path d="M96.4516 82.5054L49.7236 82.8266L49.7274 83.3791L96.4554 83.0579L96.4516 82.5054Z" fill="#3F3D56"/>
<path d="M35.2011 50.2417C36.8702 50.2417 38.2233 49.4996 38.2233 48.5841C38.2233 47.6686 36.8702 46.9265 35.2011 46.9265C33.532 46.9265 32.1789 47.6686 32.1789 48.5841C32.1789 49.4996 33.532 50.2417 35.2011 50.2417Z" fill="#3F3D56"/>
</svg>
